<svg width="200" height="200" viewBox="0 0 200 200" fill="none" xmlns="http://www.w3.org/2000/svg">
<path d="M100 70C116.569 70 130 83.4315 130 100C130 116.569 116.569 130 100 130C83.4315 130 70 116.569 70 100C70 83.4315 83.4315 70 100 70Z" fill="#2563EB"/>
<path fill-rule="evenodd" clip-rule="evenodd" d="M100 0C155.228 0 200 44.7715 200 100V180C200 191.046 191.046 200 180 200C172.433 200 165.848 195.798 162.45 189.599C160.469 185.985 155.239 183.471 151.713 185.606C136.624 194.741 118.926 200 100 200C44.7715 200 0 155.228 0 100V20C0 8.95431 8.95431 0 20 0C27.5665 0 34.1506 4.20186 37.5475 10.3995C39.5283 14.0134 44.7579 16.5269 48.2833 14.3927C63.3732 5.25748 81.0729 0 100 0ZM100 40C66.8629 40 40 66.8629 40 100C40 133.137 66.8629 160 100 160C133.137 160 160 133.137 160 100C160 66.8629 133.137 40 100 40Z" fill="#2563EB"/>
</svg>
